<svg xmlns="http://www.w3.org/2000/svg" viewBox="0 0 57 79">
  <path fill="#ffffff" fill-rule="evenodd" d="M30.725,78.321 C29.517,78.356 28.359,78.329 27.227,78.272 C32.277,76.806 36.778,69.952 34.759,61.942 C32.479,52.897 23.573,54.229 24.192,44.598 C10.646,57.102 15.247,73.728 22.182,77.696 C-2.748,72.999 -5.191,43.785 9.525,30.487 C23.529,17.833 25.196,9.315 27.138,0.076 C27.138,0.076 41.318,10.225 41.652,19.400 C41.985,28.575 32.995,33.722 37.607,38.032 C42.218,42.342 48.685,37.042 47.472,32.220 C61.107,46.792 63.504,77.371 30.725,78.321 Z"/>
</svg>
