<svg 
 xmlns="http://www.w3.org/2000/svg"
 xmlns:xlink="http://www.w3.org/1999/xlink"
 width="57px" height="69px">
<path fill-rule="evenodd"  fill="rgb(98, 98, 98)"
 d="M52.928,36.126 L20.579,36.126 L20.579,29.419 L52.928,29.419 C54.773,29.419 56.269,30.914 56.269,32.759 L56.269,32.785 C56.269,34.631 54.773,36.126 52.928,36.126 ZM0.514,30.760 L0.514,8.369 C0.514,3.768 4.244,0.038 8.845,0.038 L8.871,0.038 C13.472,0.038 17.202,3.768 17.202,8.369 L17.202,36.100 L5.854,36.100 C2.905,36.100 0.514,33.709 0.514,30.760 ZM54.677,43.166 C54.677,49.674 49.401,54.951 42.892,54.951 L38.798,54.951 L33.143,68.770 L9.717,68.770 L9.717,39.116 L54.677,39.116 L54.677,43.166 Z"/>
</svg>