<svg 
 xmlns="http://www.w3.org/2000/svg"
 xmlns:xlink="http://www.w3.org/1999/xlink"
 width="72px" height="71px">
<path fill-rule="evenodd"  fill="rgb(98, 98, 98)"
 d="M36.035,70.859 C16.445,70.859 0.563,55.017 0.563,35.476 C0.563,15.935 16.445,0.094 36.035,0.094 C55.626,0.094 71.507,15.935 71.507,35.476 C71.507,55.017 55.626,70.859 36.035,70.859 ZM16.839,23.320 C12.758,23.320 9.451,26.628 9.451,30.708 C9.451,34.789 12.758,38.096 16.839,38.096 C20.919,38.096 24.227,34.789 24.227,30.708 C24.227,26.628 20.919,23.320 16.839,23.320 ZM25.800,44.931 C24.182,44.931 22.870,46.242 22.870,47.861 C22.870,49.479 24.182,50.791 25.800,50.791 L46.228,50.791 C47.846,50.791 49.157,49.479 49.157,47.861 C49.157,46.242 47.846,44.931 46.228,44.931 L25.800,44.931 ZM54.458,23.320 C50.377,23.320 47.070,26.628 47.070,30.708 C47.070,34.789 50.377,38.096 54.458,38.096 C58.538,38.096 61.846,34.789 61.846,30.708 C61.846,26.628 58.538,23.320 54.458,23.320 Z"/>
</svg>